<svg xmlns="http://www.w3.org/2000/svg" xmlns:xlink="http://www.w3.org/1999/xlink" width="1200" zoomAndPan="magnify" viewBox="8 75 862 182" height="400" preserveAspectRatio="xMidYMid meet" version="1.0"><defs><g/></defs><g fill="#7f77dd" fill-opacity="1"><g transform="translate(22.500016, 169.946163)"><g><path d="M 105.4375 -86.375 L 105.4375 0 L 84.40625 0 L 84.40625 -51.796875 L 65.078125 0 L 48.109375 0 L 28.671875 -51.921875 L 28.671875 0 L 7.625 0 L 7.625 -86.375 L 32.484375 -86.375 L 56.71875 -26.578125 L 80.703125 -86.375 Z M 105.4375 -86.375 "/></g></g></g><g fill="#7f77dd" fill-opacity="1"><g transform="translate(135.446201, 169.946163)"><g><path d="M 59.921875 -44.296875 C 64.921875 -43.222656 68.9375 -40.738281 71.96875 -36.84375 C 75.007812 -32.945312 76.53125 -28.5 76.53125 -23.5 C 76.53125 -16.28125 74.003906 -10.554688 68.953125 -6.328125 C 63.910156 -2.109375 56.878906 0 47.859375 0 L 7.625 0 L 7.625 -86.375 L 46.5 -86.375 C 55.28125 -86.375 62.148438 -84.363281 67.109375 -80.34375 C 72.078125 -76.320312 74.5625 -70.863281 74.5625 -63.96875 C 74.5625 -58.882812 73.226562 -54.660156 70.5625 -51.296875 C 67.894531 -47.941406 64.347656 -45.609375 59.921875 -44.296875 Z M 28.671875 -51.421875 L 42.453125 -51.421875 C 45.890625 -51.421875 48.53125 -52.179688 50.375 -53.703125 C 52.226562 -55.222656 53.15625 -57.457031 53.15625 -60.40625 C 53.15625 -63.363281 52.226562 -65.617188 50.375 -67.171875 C 48.53125 -68.734375 45.890625 -69.515625 42.453125 -69.515625 L 28.671875 -69.515625 Z M 44.171875 -16.984375 C 47.691406 -16.984375 50.414062 -17.78125 52.34375 -19.375 C 54.269531 -20.976562 55.234375 -23.296875 55.234375 -26.328125 C 55.234375 -29.359375 54.226562 -31.734375 52.21875 -33.453125 C 50.21875 -35.179688 47.453125 -36.046875 43.921875 -36.046875 L 28.671875 -36.046875 L 28.671875 -16.984375 Z M 44.171875 -16.984375 "/></g></g></g><g fill="#7f77dd" fill-opacity="1"><g transform="translate(216.526291, 169.946163)"><g><path d="M 60.53125 -51.921875 L 60.53125 -34.453125 L 6.390625 -34.453125 L 6.390625 -51.921875 Z M 60.53125 -51.921875 "/></g></g></g><g fill="#1c1a17" fill-opacity="1"><g transform="translate(287.894529, 169.946163)"><g><path d="M 38.875 0.859375 C 32.5625 0.859375 26.898438 -0.164062 21.890625 -2.21875 C 16.890625 -4.269531 12.890625 -7.300781 9.890625 -11.3125 C 6.898438 -15.332031 5.328125 -20.175781 5.171875 -25.84375 L 27.5625 -25.84375 C 27.882812 -22.632812 28.988281 -20.191406 30.875 -18.515625 C 32.757812 -16.835938 35.222656 -16 38.265625 -16 C 41.378906 -16 43.835938 -16.710938 45.640625 -18.140625 C 47.441406 -19.578125 48.34375 -21.566406 48.34375 -24.109375 C 48.34375 -26.242188 47.625 -28.007812 46.1875 -29.40625 C 44.757812 -30.800781 43 -31.945312 40.90625 -32.84375 C 38.8125 -33.75 35.835938 -34.773438 31.984375 -35.921875 C 26.410156 -37.648438 21.859375 -39.375 18.328125 -41.09375 C 14.804688 -42.8125 11.769531 -45.351562 9.21875 -48.71875 C 6.675781 -52.082031 5.40625 -56.472656 5.40625 -61.890625 C 5.40625 -69.921875 8.316406 -76.210938 14.140625 -80.765625 C 19.972656 -85.316406 27.5625 -87.59375 36.90625 -87.59375 C 46.425781 -87.59375 54.097656 -85.316406 59.921875 -80.765625 C 65.742188 -76.210938 68.859375 -69.878906 69.265625 -61.765625 L 46.5 -61.765625 C 46.34375 -64.546875 45.316406 -66.738281 43.421875 -68.34375 C 41.535156 -69.945312 39.117188 -70.75 36.171875 -70.75 C 33.628906 -70.75 31.578125 -70.070312 30.015625 -68.71875 C 28.460938 -67.363281 27.6875 -65.414062 27.6875 -62.875 C 27.6875 -60.082031 29 -57.90625 31.625 -56.34375 C 34.25 -54.789062 38.347656 -53.109375 43.921875 -51.296875 C 49.492188 -49.410156 54.023438 -47.609375 57.515625 -45.890625 C 61.003906 -44.171875 64.019531 -41.671875 66.5625 -38.390625 C 69.101562 -35.109375 70.375 -30.882812 70.375 -25.71875 C 70.375 -20.789062 69.125 -16.316406 66.625 -12.296875 C 64.125 -8.285156 60.492188 -5.085938 55.734375 -2.703125 C 50.972656 -0.328125 45.351562 0.859375 38.875 0.859375 Z M 38.875 0.859375 "/></g></g></g><g fill="#1c1a17" fill-opacity="1"><g transform="translate(363.561096, 169.946163)"><g><path d="M 38.875 0.984375 C 32.15625 0.984375 26.109375 -0.445312 20.734375 -3.3125 C 15.359375 -6.1875 11.128906 -10.289062 8.046875 -15.625 C 4.972656 -20.957031 3.4375 -27.191406 3.4375 -34.328125 C 3.4375 -41.378906 4.992188 -47.59375 8.109375 -52.96875 C 11.234375 -58.34375 15.5 -62.460938 20.90625 -65.328125 C 26.320312 -68.203125 32.394531 -69.640625 39.125 -69.640625 C 45.851562 -69.640625 51.921875 -68.203125 57.328125 -65.328125 C 62.742188 -62.460938 67.007812 -58.34375 70.125 -52.96875 C 73.238281 -47.59375 74.796875 -41.378906 74.796875 -34.328125 C 74.796875 -27.273438 73.21875 -21.0625 70.0625 -15.6875 C 66.90625 -10.3125 62.597656 -6.1875 57.140625 -3.3125 C 51.691406 -0.445312 45.601562 0.984375 38.875 0.984375 Z M 38.875 -17.21875 C 42.894531 -17.21875 46.316406 -18.691406 49.140625 -21.640625 C 51.972656 -24.597656 53.390625 -28.828125 53.390625 -34.328125 C 53.390625 -39.816406 52.015625 -44.035156 49.265625 -46.984375 C 46.523438 -49.941406 43.144531 -51.421875 39.125 -51.421875 C 35.019531 -51.421875 31.613281 -49.960938 28.90625 -47.046875 C 26.207031 -44.140625 24.859375 -39.898438 24.859375 -34.328125 C 24.859375 -28.828125 26.1875 -24.597656 28.84375 -21.640625 C 31.507812 -18.691406 34.851562 -17.21875 38.875 -17.21875 Z M 38.875 -17.21875 "/></g></g></g><g fill="#1c1a17" fill-opacity="1"><g transform="translate(441.934429, 169.946163)"><g><path d="M 28.671875 -91.046875 L 28.671875 0 L 7.625 0 L 7.625 -91.046875 Z M 28.671875 -91.046875 "/></g></g></g><g fill="#1c1a17" fill-opacity="1"><g transform="translate(478.229776, 169.946163)"><g><path d="M 75.421875 -68.65625 L 75.421875 0 L 54.375 0 L 54.375 -9.34375 C 52.25 -6.3125 49.359375 -3.875 45.703125 -2.03125 C 42.054688 -0.1875 38.019531 0.734375 33.59375 0.734375 C 28.34375 0.734375 23.707031 -0.429688 19.6875 -2.765625 C 15.664062 -5.109375 12.546875 -8.492188 10.328125 -12.921875 C 8.117188 -17.347656 7.015625 -22.554688 7.015625 -28.546875 L 7.015625 -68.65625 L 27.921875 -68.65625 L 27.921875 -31.375 C 27.921875 -26.78125 29.109375 -23.210938 31.484375 -20.671875 C 33.867188 -18.128906 37.070312 -16.859375 41.09375 -16.859375 C 45.195312 -16.859375 48.4375 -18.128906 50.8125 -20.671875 C 53.1875 -23.210938 54.375 -26.78125 54.375 -31.375 L 54.375 -68.65625 Z M 75.421875 -68.65625 "/></g></g></g><g fill="#1c1a17" fill-opacity="1"><g transform="translate(561.155409, 169.946163)"><g><path d="M 45.890625 -17.84375 L 45.890625 0 L 35.1875 0 C 27.5625 0 21.613281 -1.863281 17.34375 -5.59375 C 13.082031 -9.332031 10.953125 -15.425781 10.953125 -23.875 L 10.953125 -51.1875 L 2.578125 -51.1875 L 2.578125 -68.65625 L 10.953125 -68.65625 L 10.953125 -85.390625 L 31.984375 -85.390625 L 31.984375 -68.65625 L 45.765625 -68.65625 L 45.765625 -51.1875 L 31.984375 -51.1875 L 31.984375 -23.625 C 31.984375 -21.570312 32.472656 -20.09375 33.453125 -19.1875 C 34.441406 -18.289062 36.085938 -17.84375 38.390625 -17.84375 Z M 45.890625 -17.84375 "/></g></g></g><g fill="#1c1a17" fill-opacity="1"><g transform="translate(611.107653, 169.946163)"><g><path d="M 18.203125 -75.78125 C 14.515625 -75.78125 11.5 -76.867188 9.15625 -79.046875 C 6.820312 -81.222656 5.65625 -83.910156 5.65625 -87.109375 C 5.65625 -90.390625 6.820312 -93.113281 9.15625 -95.28125 C 11.5 -97.457031 14.515625 -98.546875 18.203125 -98.546875 C 21.816406 -98.546875 24.789062 -97.457031 27.125 -95.28125 C 29.46875 -93.113281 30.640625 -90.390625 30.640625 -87.109375 C 30.640625 -83.910156 29.46875 -81.222656 27.125 -79.046875 C 24.789062 -76.867188 21.816406 -75.78125 18.203125 -75.78125 Z M 28.671875 -68.65625 L 28.671875 0 L 7.625 0 L 7.625 -68.65625 Z M 28.671875 -68.65625 "/></g></g></g><g fill="#1c1a17" fill-opacity="1"><g transform="translate(647.402999, 169.946163)"><g><path d="M 38.875 0.984375 C 32.15625 0.984375 26.109375 -0.445312 20.734375 -3.3125 C 15.359375 -6.1875 11.128906 -10.289062 8.046875 -15.625 C 4.972656 -20.957031 3.4375 -27.191406 3.4375 -34.328125 C 3.4375 -41.378906 4.992188 -47.59375 8.109375 -52.96875 C 11.234375 -58.34375 15.5 -62.460938 20.90625 -65.328125 C 26.320312 -68.203125 32.394531 -69.640625 39.125 -69.640625 C 45.851562 -69.640625 51.921875 -68.203125 57.328125 -65.328125 C 62.742188 -62.460938 67.007812 -58.34375 70.125 -52.96875 C 73.238281 -47.59375 74.796875 -41.378906 74.796875 -34.328125 C 74.796875 -27.273438 73.21875 -21.0625 70.0625 -15.6875 C 66.90625 -10.3125 62.597656 -6.1875 57.140625 -3.3125 C 51.691406 -0.445312 45.601562 0.984375 38.875 0.984375 Z M 38.875 -17.21875 C 42.894531 -17.21875 46.316406 -18.691406 49.140625 -21.640625 C 51.972656 -24.597656 53.390625 -28.828125 53.390625 -34.328125 C 53.390625 -39.816406 52.015625 -44.035156 49.265625 -46.984375 C 46.523438 -49.941406 43.144531 -51.421875 39.125 -51.421875 C 35.019531 -51.421875 31.613281 -49.960938 28.90625 -47.046875 C 26.207031 -44.140625 24.859375 -39.898438 24.859375 -34.328125 C 24.859375 -28.828125 26.1875 -24.597656 28.84375 -21.640625 C 31.507812 -18.691406 34.851562 -17.21875 38.875 -17.21875 Z M 38.875 -17.21875 "/></g></g></g><g fill="#1c1a17" fill-opacity="1"><g transform="translate(725.776299, 169.946163)"><g><path d="M 49.453125 -69.390625 C 57.492188 -69.390625 63.910156 -66.785156 68.703125 -61.578125 C 73.503906 -56.367188 75.90625 -49.210938 75.90625 -40.109375 L 75.90625 0 L 55 0 L 55 -37.28125 C 55 -41.875 53.804688 -45.441406 51.421875 -47.984375 C 49.046875 -50.523438 45.847656 -51.796875 41.828125 -51.796875 C 37.804688 -51.796875 34.609375 -50.523438 32.234375 -47.984375 C 29.859375 -45.441406 28.671875 -41.875 28.671875 -37.28125 L 28.671875 0 L 7.625 0 L 7.625 -68.65625 L 28.671875 -68.65625 L 28.671875 -59.546875 C 30.796875 -62.578125 33.660156 -64.972656 37.265625 -66.734375 C 40.878906 -68.503906 44.941406 -69.390625 49.453125 -69.390625 Z M 49.453125 -69.390625 "/></g></g></g><g fill="#1c1a17" fill-opacity="1"><g transform="translate(808.701967, 169.946163)"><g><path d="M 35.5625 0.984375 C 29.570312 0.984375 24.238281 -0.0390625 19.5625 -2.09375 C 14.882812 -4.144531 11.191406 -6.953125 8.484375 -10.515625 C 5.773438 -14.085938 4.257812 -18.085938 3.9375 -22.515625 L 24.734375 -22.515625 C 24.972656 -20.140625 26.078125 -18.210938 28.046875 -16.734375 C 30.015625 -15.253906 32.4375 -14.515625 35.3125 -14.515625 C 37.9375 -14.515625 39.960938 -15.023438 41.390625 -16.046875 C 42.828125 -17.078125 43.546875 -18.410156 43.546875 -20.046875 C 43.546875 -22.015625 42.519531 -23.472656 40.46875 -24.421875 C 38.425781 -25.367188 35.109375 -26.414062 30.515625 -27.5625 C 25.585938 -28.707031 21.484375 -29.914062 18.203125 -31.1875 C 14.921875 -32.457031 12.09375 -34.46875 9.71875 -37.21875 C 7.34375 -39.96875 6.15625 -43.675781 6.15625 -48.34375 C 6.15625 -52.28125 7.238281 -55.867188 9.40625 -59.109375 C 11.582031 -62.347656 14.78125 -64.910156 19 -66.796875 C 23.226562 -68.691406 28.253906 -69.640625 34.078125 -69.640625 C 42.691406 -69.640625 49.476562 -67.503906 54.4375 -63.234375 C 59.40625 -58.972656 62.253906 -53.316406 62.984375 -46.265625 L 43.546875 -46.265625 C 43.222656 -48.640625 42.175781 -50.523438 40.40625 -51.921875 C 38.644531 -53.316406 36.332031 -54.015625 33.46875 -54.015625 C 31.007812 -54.015625 29.125 -53.539062 27.8125 -52.59375 C 26.5 -51.65625 25.84375 -50.363281 25.84375 -48.71875 C 25.84375 -46.75 26.882812 -45.269531 28.96875 -44.28125 C 31.0625 -43.300781 34.320312 -42.320312 38.75 -41.34375 C 43.832031 -40.03125 47.972656 -38.738281 51.171875 -37.46875 C 54.378906 -36.195312 57.191406 -34.144531 59.609375 -31.3125 C 62.023438 -28.476562 63.273438 -24.6875 63.359375 -19.9375 C 63.359375 -15.914062 62.226562 -12.320312 59.96875 -9.15625 C 57.71875 -6 54.476562 -3.519531 50.25 -1.71875 C 46.03125 0.0820312 41.132812 0.984375 35.5625 0.984375 Z M 35.5625 0.984375 "/></g></g></g><g fill="#9ca3af" fill-opacity="1"><g transform="translate(22.500016, 238.341381)"><g><path d="M 6.953125 0 L 0.671875 -22.96875 L 3.5 -22.96875 L 8.296875 -4.265625 L 8.515625 -4.265625 L 13.40625 -22.96875 L 16.546875 -22.96875 L 21.4375 -4.265625 L 21.671875 -4.265625 L 26.46875 -22.96875 L 29.296875 -22.96875 L 23.015625 0 L 20.140625 0 L 15.078125 -18.296875 L 14.890625 -18.296875 L 9.828125 0 Z M 6.953125 0 "/></g></g></g><g fill="#9ca3af" fill-opacity="1"><g transform="translate(52.467055, 238.341381)"><g><path d="M 9.640625 0.359375 C 7.984375 0.359375 6.554688 -0.00390625 5.359375 -0.734375 C 4.160156 -1.472656 3.234375 -2.503906 2.578125 -3.828125 C 1.929688 -5.160156 1.609375 -6.710938 1.609375 -8.484375 C 1.609375 -10.242188 1.929688 -11.796875 2.578125 -13.140625 C 3.234375 -14.492188 4.140625 -15.550781 5.296875 -16.3125 C 6.460938 -17.070312 7.820312 -17.453125 9.375 -17.453125 C 10.269531 -17.453125 11.15625 -17.300781 12.03125 -17 C 12.90625 -16.695312 13.703125 -16.210938 14.421875 -15.546875 C 15.140625 -14.878906 15.710938 -13.992188 16.140625 -12.890625 C 16.566406 -11.796875 16.78125 -10.445312 16.78125 -8.84375 L 16.78125 -7.71875 L 4.265625 -7.71875 C 4.328125 -5.875 4.847656 -4.460938 5.828125 -3.484375 C 6.816406 -2.503906 8.085938 -2.015625 9.640625 -2.015625 C 10.679688 -2.015625 11.578125 -2.238281 12.328125 -2.6875 C 13.078125 -3.132812 13.617188 -3.804688 13.953125 -4.703125 L 16.5 -3.984375 C 16.101562 -2.691406 15.296875 -1.644531 14.078125 -0.84375 C 12.867188 -0.0390625 11.390625 0.359375 9.640625 0.359375 Z M 4.265625 -10 L 14.078125 -10 C 14.078125 -11.457031 13.648438 -12.664062 12.796875 -13.625 C 11.953125 -14.59375 10.8125 -15.078125 9.375 -15.078125 C 8.363281 -15.078125 7.488281 -14.835938 6.75 -14.359375 C 6.007812 -13.890625 5.425781 -13.269531 5 -12.5 C 4.570312 -11.726562 4.328125 -10.894531 4.265625 -10 Z M 4.265625 -10 "/></g></g></g><g fill="#9ca3af" fill-opacity="1"><g transform="translate(70.859998, 238.341381)"><g><path d="M 2.78125 0 L 2.78125 -22.96875 L 5.421875 -22.96875 L 5.421875 -14.484375 L 5.65625 -14.484375 C 5.84375 -14.785156 6.109375 -15.171875 6.453125 -15.640625 C 6.804688 -16.109375 7.3125 -16.523438 7.96875 -16.890625 C 8.625 -17.265625 9.507812 -17.453125 10.625 -17.453125 C 12.082031 -17.453125 13.363281 -17.085938 14.46875 -16.359375 C 15.570312 -15.628906 16.429688 -14.597656 17.046875 -13.265625 C 17.671875 -11.941406 17.984375 -10.375 17.984375 -8.5625 C 17.984375 -6.738281 17.671875 -5.160156 17.046875 -3.828125 C 16.429688 -2.492188 15.570312 -1.460938 14.46875 -0.734375 C 13.375 -0.00390625 12.109375 0.359375 10.671875 0.359375 C 9.566406 0.359375 8.679688 0.175781 8.015625 -0.1875 C 7.347656 -0.5625 6.832031 -0.984375 6.46875 -1.453125 C 6.113281 -1.929688 5.84375 -2.328125 5.65625 -2.640625 L 5.34375 -2.640625 L 5.34375 0 Z M 5.375 -8.609375 C 5.375 -6.660156 5.796875 -5.070312 6.640625 -3.84375 C 7.492188 -2.625 8.71875 -2.015625 10.3125 -2.015625 C 11.414062 -2.015625 12.335938 -2.304688 13.078125 -2.890625 C 13.828125 -3.484375 14.390625 -4.273438 14.765625 -5.265625 C 15.148438 -6.265625 15.34375 -7.378906 15.34375 -8.609375 C 15.34375 -9.816406 15.15625 -10.910156 14.78125 -11.890625 C 14.414062 -12.867188 13.859375 -13.644531 13.109375 -14.21875 C 12.367188 -14.789062 11.4375 -15.078125 10.3125 -15.078125 C 8.695312 -15.078125 7.46875 -14.476562 6.625 -13.28125 C 5.789062 -12.09375 5.375 -10.535156 5.375 -8.609375 Z M 5.375 -8.609375 "/></g></g></g><g fill="#9ca3af" fill-opacity="1"><g transform="translate(90.464183, 238.341381)"><g><path d="M 8.921875 0.359375 C 7.484375 0.359375 6.210938 -0.00390625 5.109375 -0.734375 C 4.015625 -1.460938 3.15625 -2.492188 2.53125 -3.828125 C 1.914062 -5.160156 1.609375 -6.738281 1.609375 -8.5625 C 1.609375 -10.375 1.914062 -11.941406 2.53125 -13.265625 C 3.15625 -14.597656 4.019531 -15.628906 5.125 -16.359375 C 6.238281 -17.085938 7.519531 -17.453125 8.96875 -17.453125 C 10.09375 -17.453125 10.976562 -17.265625 11.625 -16.890625 C 12.28125 -16.523438 12.78125 -16.109375 13.125 -15.640625 C 13.476562 -15.171875 13.753906 -14.785156 13.953125 -14.484375 L 14.171875 -14.484375 L 14.171875 -22.96875 L 16.828125 -22.96875 L 16.828125 0 L 14.265625 0 L 14.265625 -2.640625 L 13.953125 -2.640625 C 13.753906 -2.328125 13.472656 -1.929688 13.109375 -1.453125 C 12.753906 -0.984375 12.242188 -0.5625 11.578125 -0.1875 C 10.910156 0.175781 10.023438 0.359375 8.921875 0.359375 Z M 9.28125 -2.015625 C 10.875 -2.015625 12.09375 -2.625 12.9375 -3.84375 C 13.789062 -5.070312 14.21875 -6.660156 14.21875 -8.609375 C 14.21875 -10.535156 13.796875 -12.09375 12.953125 -13.28125 C 12.117188 -14.476562 10.894531 -15.078125 9.28125 -15.078125 C 8.164062 -15.078125 7.234375 -14.789062 6.484375 -14.21875 C 5.742188 -13.644531 5.1875 -12.867188 4.8125 -11.890625 C 4.445312 -10.910156 4.265625 -9.816406 4.265625 -8.609375 C 4.265625 -7.378906 4.453125 -6.265625 4.828125 -5.265625 C 5.203125 -4.273438 5.757812 -3.484375 6.5 -2.890625 C 7.25 -2.304688 8.175781 -2.015625 9.28125 -2.015625 Z M 9.28125 -2.015625 "/></g></g></g><g fill="#9ca3af" fill-opacity="1"><g transform="translate(110.068369, 238.341381)"><g><path d="M 9.640625 0.359375 C 7.984375 0.359375 6.554688 -0.00390625 5.359375 -0.734375 C 4.160156 -1.472656 3.234375 -2.503906 2.578125 -3.828125 C 1.929688 -5.160156 1.609375 -6.710938 1.609375 -8.484375 C 1.609375 -10.242188 1.929688 -11.796875 2.578125 -13.140625 C 3.234375 -14.492188 4.140625 -15.550781 5.296875 -16.3125 C 6.460938 -17.070312 7.820312 -17.453125 9.375 -17.453125 C 10.269531 -17.453125 11.15625 -17.300781 12.03125 -17 C 12.90625 -16.695312 13.703125 -16.210938 14.421875 -15.546875 C 15.140625 -14.878906 15.710938 -13.992188 16.140625 -12.890625 C 16.566406 -11.796875 16.78125 -10.445312 16.78125 -8.84375 L 16.78125 -7.71875 L 4.265625 -7.71875 C 4.328125 -5.875 4.847656 -4.460938 5.828125 -3.484375 C 6.816406 -2.503906 8.085938 -2.015625 9.640625 -2.015625 C 10.679688 -2.015625 11.578125 -2.238281 12.328125 -2.6875 C 13.078125 -3.132812 13.617188 -3.804688 13.953125 -4.703125 L 16.5 -3.984375 C 16.101562 -2.691406 15.296875 -1.644531 14.078125 -0.84375 C 12.867188 -0.0390625 11.390625 0.359375 9.640625 0.359375 Z M 4.265625 -10 L 14.078125 -10 C 14.078125 -11.457031 13.648438 -12.664062 12.796875 -13.625 C 11.953125 -14.59375 10.8125 -15.078125 9.375 -15.078125 C 8.363281 -15.078125 7.488281 -14.835938 6.75 -14.359375 C 6.007812 -13.890625 5.425781 -13.269531 5 -12.5 C 4.570312 -11.726562 4.328125 -10.894531 4.265625 -10 Z M 4.265625 -10 "/></g></g></g><g fill="#9ca3af" fill-opacity="1"><g transform="translate(128.461312, 238.341381)"><g><path d="M 14.625 -13.359375 L 12.25 -12.6875 C 12.007812 -13.289062 11.617188 -13.851562 11.078125 -14.375 C 10.535156 -14.894531 9.679688 -15.15625 8.515625 -15.15625 C 7.460938 -15.15625 6.585938 -14.914062 5.890625 -14.4375 C 5.191406 -13.957031 4.84375 -13.347656 4.84375 -12.609375 C 4.84375 -11.953125 5.082031 -11.429688 5.5625 -11.046875 C 6.039062 -10.660156 6.789062 -10.34375 7.8125 -10.09375 L 10.359375 -9.46875 C 13.410156 -8.71875 14.9375 -7.160156 14.9375 -4.796875 C 14.9375 -3.804688 14.65625 -2.921875 14.09375 -2.140625 C 13.53125 -1.367188 12.742188 -0.757812 11.734375 -0.3125 C 10.722656 0.132812 9.546875 0.359375 8.203125 0.359375 C 6.453125 0.359375 5 -0.0195312 3.84375 -0.78125 C 2.695312 -1.539062 1.96875 -2.65625 1.65625 -4.125 L 4.171875 -4.75 C 4.640625 -2.894531 5.96875 -1.96875 8.15625 -1.96875 C 9.394531 -1.96875 10.378906 -2.234375 11.109375 -2.765625 C 11.835938 -3.296875 12.203125 -3.929688 12.203125 -4.671875 C 12.203125 -5.890625 11.347656 -6.695312 9.640625 -7.09375 L 6.765625 -7.765625 C 5.191406 -8.140625 4.035156 -8.71875 3.296875 -9.5 C 2.566406 -10.289062 2.203125 -11.28125 2.203125 -12.46875 C 2.203125 -13.4375 2.472656 -14.296875 3.015625 -15.046875 C 3.566406 -15.796875 4.316406 -16.382812 5.265625 -16.8125 C 6.222656 -17.238281 7.304688 -17.453125 8.515625 -17.453125 C 10.222656 -17.453125 11.5625 -17.078125 12.53125 -16.328125 C 13.507812 -15.578125 14.207031 -14.585938 14.625 -13.359375 Z M 14.625 -13.359375 "/></g></g></g><g fill="#9ca3af" fill-opacity="1"><g transform="translate(144.9701, 238.341381)"><g><path d="M 2.421875 0 L 2.421875 -17.21875 L 5.0625 -17.21875 L 5.0625 0 Z M 3.765625 -20.09375 C 3.253906 -20.09375 2.8125 -20.269531 2.4375 -20.625 C 2.070312 -20.976562 1.890625 -21.398438 1.890625 -21.890625 C 1.890625 -22.378906 2.070312 -22.800781 2.4375 -23.15625 C 2.8125 -23.507812 3.253906 -23.6875 3.765625 -23.6875 C 4.285156 -23.6875 4.726562 -23.507812 5.09375 -23.15625 C 5.46875 -22.800781 5.65625 -22.378906 5.65625 -21.890625 C 5.65625 -21.398438 5.46875 -20.976562 5.09375 -20.625 C 4.726562 -20.269531 4.285156 -20.09375 3.765625 -20.09375 Z M 3.765625 -20.09375 "/></g></g></g><g fill="#9ca3af" fill-opacity="1"><g transform="translate(152.461859, 238.341381)"><g><path d="M 9.375 6.8125 C 7.457031 6.8125 5.9375 6.460938 4.8125 5.765625 C 3.695312 5.066406 2.867188 4.265625 2.328125 3.359375 L 4.4375 1.890625 C 4.675781 2.203125 4.976562 2.5625 5.34375 2.96875 C 5.71875 3.375 6.222656 3.726562 6.859375 4.03125 C 7.492188 4.332031 8.332031 4.484375 9.375 4.484375 C 10.757812 4.484375 11.90625 4.144531 12.8125 3.46875 C 13.71875 2.800781 14.171875 1.75 14.171875 0.3125 L 14.171875 -3.1875 L 13.953125 -3.1875 C 13.753906 -2.875 13.476562 -2.484375 13.125 -2.015625 C 12.769531 -1.554688 12.257812 -1.148438 11.59375 -0.796875 C 10.9375 -0.441406 10.046875 -0.265625 8.921875 -0.265625 C 7.535156 -0.265625 6.289062 -0.59375 5.1875 -1.25 C 4.082031 -1.914062 3.207031 -2.875 2.5625 -4.125 C 1.925781 -5.382812 1.609375 -6.910156 1.609375 -8.703125 C 1.609375 -10.460938 1.914062 -12 2.53125 -13.3125 C 3.15625 -14.625 4.019531 -15.640625 5.125 -16.359375 C 6.238281 -17.085938 7.519531 -17.453125 8.96875 -17.453125 C 10.09375 -17.453125 10.984375 -17.265625 11.640625 -16.890625 C 12.304688 -16.523438 12.816406 -16.109375 13.171875 -15.640625 C 13.523438 -15.171875 13.800781 -14.785156 14 -14.484375 L 14.265625 -14.484375 L 14.265625 -17.21875 L 16.828125 -17.21875 L 16.828125 0.5 C 16.828125 1.976562 16.488281 3.179688 15.8125 4.109375 C 15.144531 5.035156 14.25 5.71875 13.125 6.15625 C 12 6.59375 10.75 6.8125 9.375 6.8125 Z M 9.28125 -2.640625 C 10.875 -2.640625 12.09375 -3.179688 12.9375 -4.265625 C 13.789062 -5.347656 14.21875 -6.84375 14.21875 -8.75 C 14.21875 -10.601562 13.796875 -12.117188 12.953125 -13.296875 C 12.117188 -14.484375 10.894531 -15.078125 9.28125 -15.078125 C 8.164062 -15.078125 7.234375 -14.789062 6.484375 -14.21875 C 5.742188 -13.644531 5.1875 -12.878906 4.8125 -11.921875 C 4.445312 -10.972656 4.265625 -9.914062 4.265625 -8.75 C 4.265625 -6.957031 4.6875 -5.488281 5.53125 -4.34375 C 6.375 -3.207031 7.625 -2.640625 9.28125 -2.640625 Z M 9.28125 -2.640625 "/></g></g></g><g fill="#9ca3af" fill-opacity="1"><g transform="translate(171.707158, 238.341381)"><g><path d="M 5.0625 -10.359375 L 5.0625 0 L 2.421875 0 L 2.421875 -17.21875 L 4.984375 -17.21875 L 4.984375 -14.53125 L 5.203125 -14.53125 C 5.609375 -15.40625 6.222656 -16.109375 7.046875 -16.640625 C 7.867188 -17.179688 8.929688 -17.453125 10.234375 -17.453125 C 11.972656 -17.453125 13.378906 -16.914062 14.453125 -15.84375 C 15.523438 -14.769531 16.0625 -13.132812 16.0625 -10.9375 L 16.0625 0 L 13.40625 0 L 13.40625 -10.765625 C 13.40625 -12.117188 13.050781 -13.175781 12.34375 -13.9375 C 11.644531 -14.695312 10.6875 -15.078125 9.46875 -15.078125 C 8.195312 -15.078125 7.144531 -14.664062 6.3125 -13.84375 C 5.476562 -13.019531 5.0625 -11.859375 5.0625 -10.359375 Z M 5.0625 -10.359375 "/></g></g></g><g fill="#9ca3af" fill-opacity="1"><g transform="translate(190.189822, 238.341381)"><g/></g></g><g fill="#9ca3af" fill-opacity="1"><g transform="translate(199.072268, 238.341381)"><g><path d="M 4.390625 -9.828125 C 3.835938 -9.828125 3.363281 -10.023438 2.96875 -10.421875 C 2.570312 -10.816406 2.375 -11.289062 2.375 -11.84375 C 2.375 -12.394531 2.570312 -12.867188 2.96875 -13.265625 C 3.363281 -13.660156 3.835938 -13.859375 4.390625 -13.859375 C 4.953125 -13.859375 5.429688 -13.660156 5.828125 -13.265625 C 6.222656 -12.867188 6.421875 -12.394531 6.421875 -11.84375 C 6.421875 -11.289062 6.222656 -10.816406 5.828125 -10.421875 C 5.429688 -10.023438 4.953125 -9.828125 4.390625 -9.828125 Z M 4.390625 -9.828125 "/></g></g></g><g fill="#9ca3af" fill-opacity="1"><g transform="translate(207.864992, 238.341381)"><g/></g></g><g fill="#9ca3af" fill-opacity="1"><g transform="translate(216.747437, 238.341381)"><g><path d="M 5.5625 -22.96875 L 5.5625 0 L 2.78125 0 L 2.78125 -22.96875 Z M 5.5625 -22.96875 "/></g></g></g><g fill="#9ca3af" fill-opacity="1"><g transform="translate(225.091553, 238.341381)"><g><path d="M 1.53125 -20.5 L 1.53125 -22.96875 L 18.75 -22.96875 L 18.75 -20.5 L 11.53125 -20.5 L 11.53125 0 L 8.75 0 L 8.75 -20.5 Z M 1.53125 -20.5 "/></g></g></g><g fill="#9ca3af" fill-opacity="1"><g transform="translate(245.368651, 238.341381)"><g/></g></g><g fill="#9ca3af" fill-opacity="1"><g transform="translate(254.251097, 238.341381)"><g><path d="M 4.390625 -9.828125 C 3.835938 -9.828125 3.363281 -10.023438 2.96875 -10.421875 C 2.570312 -10.816406 2.375 -11.289062 2.375 -11.84375 C 2.375 -12.394531 2.570312 -12.867188 2.96875 -13.265625 C 3.363281 -13.660156 3.835938 -13.859375 4.390625 -13.859375 C 4.953125 -13.859375 5.429688 -13.660156 5.828125 -13.265625 C 6.222656 -12.867188 6.421875 -12.394531 6.421875 -11.84375 C 6.421875 -11.289062 6.222656 -10.816406 5.828125 -10.421875 C 5.429688 -10.023438 4.953125 -9.828125 4.390625 -9.828125 Z M 4.390625 -9.828125 "/></g></g></g><g fill="#9ca3af" fill-opacity="1"><g transform="translate(263.043821, 238.341381)"><g/></g></g><g fill="#9ca3af" fill-opacity="1"><g transform="translate(271.926266, 238.341381)"><g><path d="M 2.78125 0 L 2.78125 -22.96875 L 10.8125 -22.96875 C 12.40625 -22.96875 13.722656 -22.691406 14.765625 -22.140625 C 15.804688 -21.585938 16.582031 -20.847656 17.09375 -19.921875 C 17.601562 -19.003906 17.859375 -17.984375 17.859375 -16.859375 C 17.859375 -15.878906 17.679688 -15.066406 17.328125 -14.421875 C 16.984375 -13.773438 16.523438 -13.265625 15.953125 -12.890625 C 15.390625 -12.515625 14.78125 -12.238281 14.125 -12.0625 L 14.125 -11.84375 C 14.832031 -11.800781 15.539062 -11.550781 16.25 -11.09375 C 16.957031 -10.644531 17.550781 -10.003906 18.03125 -9.171875 C 18.507812 -8.335938 18.75 -7.3125 18.75 -6.09375 C 18.75 -4.945312 18.484375 -3.910156 17.953125 -2.984375 C 17.429688 -2.066406 16.609375 -1.335938 15.484375 -0.796875 C 14.359375 -0.265625 12.890625 0 11.078125 0 Z M 5.5625 -2.46875 L 11.078125 -2.46875 C 12.890625 -2.46875 14.179688 -2.820312 14.953125 -3.53125 C 15.722656 -4.238281 16.109375 -5.09375 16.109375 -6.09375 C 16.109375 -6.875 15.910156 -7.59375 15.515625 -8.25 C 15.117188 -8.914062 14.550781 -9.445312 13.8125 -9.84375 C 13.082031 -10.25 12.21875 -10.453125 11.21875 -10.453125 L 5.5625 -10.453125 Z M 5.5625 -12.875 L 10.71875 -12.875 C 11.976562 -12.875 13.039062 -13.234375 13.90625 -13.953125 C 14.769531 -14.679688 15.203125 -15.648438 15.203125 -16.859375 C 15.203125 -17.867188 14.847656 -18.726562 14.140625 -19.4375 C 13.441406 -20.144531 12.332031 -20.5 10.8125 -20.5 L 5.5625 -20.5 Z M 5.5625 -12.875 "/></g></g></g><g fill="#9ca3af" fill-opacity="1"><g transform="translate(292.472529, 238.341381)"><g><path d="M 2.421875 0 L 2.421875 -17.21875 L 4.984375 -17.21875 L 4.984375 -14.625 L 5.15625 -14.625 C 5.46875 -15.476562 6.03125 -16.171875 6.84375 -16.703125 C 7.664062 -17.234375 8.597656 -17.5 9.640625 -17.5 C 10.117188 -17.5 10.535156 -17.441406 10.890625 -17.328125 C 11.253906 -17.210938 11.570312 -17.054688 11.84375 -16.859375 L 10.9375 -14.625 C 10.757812 -14.71875 10.539062 -14.789062 10.28125 -14.84375 C 10.03125 -14.90625 9.742188 -14.9375 9.421875 -14.9375 C 8.160156 -14.9375 7.117188 -14.550781 6.296875 -13.78125 C 5.472656 -13.019531 5.0625 -12.0625 5.0625 -10.90625 L 5.0625 0 Z M 2.421875 0 "/></g></g></g><g fill="#9ca3af" fill-opacity="1"><g transform="translate(304.584955, 238.341381)"><g><path d="M 7.484375 0.40625 C 6.398438 0.40625 5.410156 0.195312 4.515625 -0.21875 C 3.628906 -0.632812 2.921875 -1.234375 2.390625 -2.015625 C 1.867188 -2.804688 1.609375 -3.765625 1.609375 -4.890625 C 1.609375 -5.878906 1.800781 -6.679688 2.1875 -7.296875 C 2.582031 -7.910156 3.101562 -8.394531 3.75 -8.75 C 4.40625 -9.101562 5.125 -9.363281 5.90625 -9.53125 C 6.695312 -9.707031 7.492188 -9.847656 8.296875 -9.953125 C 9.347656 -10.085938 10.195312 -10.191406 10.84375 -10.265625 C 11.5 -10.335938 11.976562 -10.457031 12.28125 -10.625 C 12.582031 -10.800781 12.734375 -11.101562 12.734375 -11.53125 L 12.734375 -11.625 C 12.734375 -12.726562 12.429688 -13.582031 11.828125 -14.1875 C 11.234375 -14.800781 10.328125 -15.109375 9.109375 -15.109375 C 7.835938 -15.109375 6.84375 -14.832031 6.125 -14.28125 C 5.414062 -13.726562 4.914062 -13.140625 4.625 -12.515625 L 2.109375 -13.40625 C 2.554688 -14.457031 3.15625 -15.273438 3.90625 -15.859375 C 4.65625 -16.441406 5.476562 -16.851562 6.375 -17.09375 C 7.269531 -17.332031 8.148438 -17.453125 9.015625 -17.453125 C 9.566406 -17.453125 10.203125 -17.382812 10.921875 -17.25 C 11.648438 -17.125 12.351562 -16.859375 13.03125 -16.453125 C 13.707031 -16.046875 14.269531 -15.4375 14.71875 -14.625 C 15.164062 -13.8125 15.390625 -12.71875 15.390625 -11.34375 L 15.390625 0 L 12.734375 0 L 12.734375 -2.328125 L 12.609375 -2.328125 C 12.421875 -1.953125 12.117188 -1.550781 11.703125 -1.125 C 11.285156 -0.707031 10.726562 -0.347656 10.03125 -0.046875 C 9.34375 0.253906 8.492188 0.40625 7.484375 0.40625 Z M 7.890625 -1.96875 C 8.941406 -1.96875 9.828125 -2.171875 10.546875 -2.578125 C 11.265625 -2.992188 11.804688 -3.523438 12.171875 -4.171875 C 12.546875 -4.828125 12.734375 -5.515625 12.734375 -6.234375 L 12.734375 -8.65625 C 12.628906 -8.519531 12.382812 -8.394531 12 -8.28125 C 11.625 -8.175781 11.191406 -8.082031 10.703125 -8 C 10.210938 -7.925781 9.738281 -7.859375 9.28125 -7.796875 C 8.820312 -7.742188 8.445312 -7.703125 8.15625 -7.671875 C 7.46875 -7.578125 6.828125 -7.429688 6.234375 -7.234375 C 5.640625 -7.035156 5.160156 -6.738281 4.796875 -6.34375 C 4.441406 -5.957031 4.265625 -5.425781 4.265625 -4.75 C 4.265625 -3.832031 4.601562 -3.140625 5.28125 -2.671875 C 5.96875 -2.203125 6.835938 -1.96875 7.890625 -1.96875 Z M 7.890625 -1.96875 "/></g></g></g><g fill="#9ca3af" fill-opacity="1"><g transform="translate(322.394707, 238.341381)"><g><path d="M 5.0625 -10.359375 L 5.0625 0 L 2.421875 0 L 2.421875 -17.21875 L 4.984375 -17.21875 L 4.984375 -14.53125 L 5.203125 -14.53125 C 5.609375 -15.40625 6.222656 -16.109375 7.046875 -16.640625 C 7.867188 -17.179688 8.929688 -17.453125 10.234375 -17.453125 C 11.972656 -17.453125 13.378906 -16.914062 14.453125 -15.84375 C 15.523438 -14.769531 16.0625 -13.132812 16.0625 -10.9375 L 16.0625 0 L 13.40625 0 L 13.40625 -10.765625 C 13.40625 -12.117188 13.050781 -13.175781 12.34375 -13.9375 C 11.644531 -14.695312 10.6875 -15.078125 9.46875 -15.078125 C 8.195312 -15.078125 7.144531 -14.664062 6.3125 -13.84375 C 5.476562 -13.019531 5.0625 -11.859375 5.0625 -10.359375 Z M 5.0625 -10.359375 "/></g></g></g><g fill="#9ca3af" fill-opacity="1"><g transform="translate(340.877372, 238.341381)"><g><path d="M 8.921875 0.359375 C 7.484375 0.359375 6.210938 -0.00390625 5.109375 -0.734375 C 4.015625 -1.460938 3.15625 -2.492188 2.53125 -3.828125 C 1.914062 -5.160156 1.609375 -6.738281 1.609375 -8.5625 C 1.609375 -10.375 1.914062 -11.941406 2.53125 -13.265625 C 3.15625 -14.597656 4.019531 -15.628906 5.125 -16.359375 C 6.238281 -17.085938 7.519531 -17.453125 8.96875 -17.453125 C 10.09375 -17.453125 10.976562 -17.265625 11.625 -16.890625 C 12.28125 -16.523438 12.78125 -16.109375 13.125 -15.640625 C 13.476562 -15.171875 13.753906 -14.785156 13.953125 -14.484375 L 14.171875 -14.484375 L 14.171875 -22.96875 L 16.828125 -22.96875 L 16.828125 0 L 14.265625 0 L 14.265625 -2.640625 L 13.953125 -2.640625 C 13.753906 -2.328125 13.472656 -1.929688 13.109375 -1.453125 C 12.753906 -0.984375 12.242188 -0.5625 11.578125 -0.1875 C 10.910156 0.175781 10.023438 0.359375 8.921875 0.359375 Z M 9.28125 -2.015625 C 10.875 -2.015625 12.09375 -2.625 12.9375 -3.84375 C 13.789062 -5.070312 14.21875 -6.660156 14.21875 -8.609375 C 14.21875 -10.535156 13.796875 -12.09375 12.953125 -13.28125 C 12.117188 -14.476562 10.894531 -15.078125 9.28125 -15.078125 C 8.164062 -15.078125 7.234375 -14.789062 6.484375 -14.21875 C 5.742188 -13.644531 5.1875 -12.867188 4.8125 -11.890625 C 4.445312 -10.910156 4.265625 -9.816406 4.265625 -8.609375 C 4.265625 -7.378906 4.453125 -6.265625 4.828125 -5.265625 C 5.203125 -4.273438 5.757812 -3.484375 6.5 -2.890625 C 7.25 -2.304688 8.175781 -2.015625 9.28125 -2.015625 Z M 9.28125 -2.015625 "/></g></g></g><g fill="#9ca3af" fill-opacity="1"><g transform="translate(360.481557, 238.341381)"><g><path d="M 2.421875 0 L 2.421875 -17.21875 L 5.0625 -17.21875 L 5.0625 0 Z M 3.765625 -20.09375 C 3.253906 -20.09375 2.8125 -20.269531 2.4375 -20.625 C 2.070312 -20.976562 1.890625 -21.398438 1.890625 -21.890625 C 1.890625 -22.378906 2.070312 -22.800781 2.4375 -23.15625 C 2.8125 -23.507812 3.253906 -23.6875 3.765625 -23.6875 C 4.285156 -23.6875 4.726562 -23.507812 5.09375 -23.15625 C 5.46875 -22.800781 5.65625 -22.378906 5.65625 -21.890625 C 5.65625 -21.398438 5.46875 -20.976562 5.09375 -20.625 C 4.726562 -20.269531 4.285156 -20.09375 3.765625 -20.09375 Z M 3.765625 -20.09375 "/></g></g></g><g fill="#9ca3af" fill-opacity="1"><g transform="translate(367.973317, 238.341381)"><g><path d="M 5.0625 -10.359375 L 5.0625 0 L 2.421875 0 L 2.421875 -17.21875 L 4.984375 -17.21875 L 4.984375 -14.53125 L 5.203125 -14.53125 C 5.609375 -15.40625 6.222656 -16.109375 7.046875 -16.640625 C 7.867188 -17.179688 8.929688 -17.453125 10.234375 -17.453125 C 11.972656 -17.453125 13.378906 -16.914062 14.453125 -15.84375 C 15.523438 -14.769531 16.0625 -13.132812 16.0625 -10.9375 L 16.0625 0 L 13.40625 0 L 13.40625 -10.765625 C 13.40625 -12.117188 13.050781 -13.175781 12.34375 -13.9375 C 11.644531 -14.695312 10.6875 -15.078125 9.46875 -15.078125 C 8.195312 -15.078125 7.144531 -14.664062 6.3125 -13.84375 C 5.476562 -13.019531 5.0625 -11.859375 5.0625 -10.359375 Z M 5.0625 -10.359375 "/></g></g></g><g fill="#9ca3af" fill-opacity="1"><g transform="translate(386.455982, 238.341381)"><g><path d="M 9.375 6.8125 C 7.457031 6.8125 5.9375 6.460938 4.8125 5.765625 C 3.695312 5.066406 2.867188 4.265625 2.328125 3.359375 L 4.4375 1.890625 C 4.675781 2.203125 4.976562 2.5625 5.34375 2.96875 C 5.71875 3.375 6.222656 3.726562 6.859375 4.03125 C 7.492188 4.332031 8.332031 4.484375 9.375 4.484375 C 10.757812 4.484375 11.90625 4.144531 12.8125 3.46875 C 13.71875 2.800781 14.171875 1.75 14.171875 0.3125 L 14.171875 -3.1875 L 13.953125 -3.1875 C 13.753906 -2.875 13.476562 -2.484375 13.125 -2.015625 C 12.769531 -1.554688 12.257812 -1.148438 11.59375 -0.796875 C 10.9375 -0.441406 10.046875 -0.265625 8.921875 -0.265625 C 7.535156 -0.265625 6.289062 -0.59375 5.1875 -1.25 C 4.082031 -1.914062 3.207031 -2.875 2.5625 -4.125 C 1.925781 -5.382812 1.609375 -6.910156 1.609375 -8.703125 C 1.609375 -10.460938 1.914062 -12 2.53125 -13.3125 C 3.15625 -14.625 4.019531 -15.640625 5.125 -16.359375 C 6.238281 -17.085938 7.519531 -17.453125 8.96875 -17.453125 C 10.09375 -17.453125 10.984375 -17.265625 11.640625 -16.890625 C 12.304688 -16.523438 12.816406 -16.109375 13.171875 -15.640625 C 13.523438 -15.171875 13.800781 -14.785156 14 -14.484375 L 14.265625 -14.484375 L 14.265625 -17.21875 L 16.828125 -17.21875 L 16.828125 0.5 C 16.828125 1.976562 16.488281 3.179688 15.8125 4.109375 C 15.144531 5.035156 14.25 5.71875 13.125 6.15625 C 12 6.59375 10.75 6.8125 9.375 6.8125 Z M 9.28125 -2.640625 C 10.875 -2.640625 12.09375 -3.179688 12.9375 -4.265625 C 13.789062 -5.347656 14.21875 -6.84375 14.21875 -8.75 C 14.21875 -10.601562 13.796875 -12.117188 12.953125 -13.296875 C 12.117188 -14.484375 10.894531 -15.078125 9.28125 -15.078125 C 8.164062 -15.078125 7.234375 -14.789062 6.484375 -14.21875 C 5.742188 -13.644531 5.1875 -12.878906 4.8125 -11.921875 C 4.445312 -10.972656 4.265625 -9.914062 4.265625 -8.75 C 4.265625 -6.957031 4.6875 -5.488281 5.53125 -4.34375 C 6.375 -3.207031 7.625 -2.640625 9.28125 -2.640625 Z M 9.28125 -2.640625 "/></g></g></g></svg>