<svg xmlns="http://www.w3.org/2000/svg" xmlns:xlink="http://www.w3.org/1999/xlink" width="1200" zoomAndPan="magnify" viewBox="0 0 900 299.999988" height="400" preserveAspectRatio="xMidYMid meet" version="1.0"><defs><g/></defs><g fill="#7f77dd" fill-opacity="1"><g transform="translate(112.500009, 153.399986)"><g><path d="M 47.984375 -39.3125 L 47.984375 0 L 38.421875 0 L 38.421875 -23.578125 L 29.625 0 L 21.890625 0 L 13.046875 -23.625 L 13.046875 0 L 3.46875 0 L 3.46875 -39.3125 L 14.78125 -39.3125 L 25.8125 -12.09375 L 36.734375 -39.3125 Z M 47.984375 -39.3125 "/></g></g></g><g fill="#7f77dd" fill-opacity="1"><g transform="translate(163.900834, 153.399986)"><g><path d="M 27.265625 -20.15625 C 29.546875 -19.675781 31.375 -18.546875 32.75 -16.765625 C 34.132812 -14.992188 34.828125 -12.972656 34.828125 -10.703125 C 34.828125 -7.410156 33.675781 -4.800781 31.375 -2.875 C 29.082031 -0.957031 25.882812 0 21.78125 0 L 3.46875 0 L 3.46875 -39.3125 L 21.171875 -39.3125 C 25.160156 -39.3125 28.285156 -38.394531 30.546875 -36.5625 C 32.804688 -34.738281 33.9375 -32.257812 33.9375 -29.125 C 33.9375 -26.800781 33.328125 -24.875 32.109375 -23.34375 C 30.898438 -21.820312 29.285156 -20.757812 27.265625 -20.15625 Z M 13.046875 -23.40625 L 19.3125 -23.40625 C 20.882812 -23.40625 22.085938 -23.75 22.921875 -24.4375 C 23.765625 -25.132812 24.1875 -26.15625 24.1875 -27.5 C 24.1875 -28.84375 23.765625 -29.867188 22.921875 -30.578125 C 22.085938 -31.285156 20.882812 -31.640625 19.3125 -31.640625 L 13.046875 -31.640625 Z M 20.109375 -7.734375 C 21.710938 -7.734375 22.953125 -8.09375 23.828125 -8.8125 C 24.703125 -9.539062 25.140625 -10.597656 25.140625 -11.984375 C 25.140625 -13.367188 24.679688 -14.453125 23.765625 -15.234375 C 22.859375 -16.015625 21.597656 -16.40625 19.984375 -16.40625 L 13.046875 -16.40625 L 13.046875 -7.734375 Z M 20.109375 -7.734375 "/></g></g></g><g fill="#7f77dd" fill-opacity="1"><g transform="translate(200.799684, 153.399986)"><g><path d="M 27.546875 -23.625 L 27.546875 -15.6875 L 2.90625 -15.6875 L 2.90625 -23.625 Z M 27.546875 -23.625 "/></g></g></g><g fill="#1c1a17" fill-opacity="1"><g transform="translate(233.285155, 153.399986)"><g><path d="M 17.703125 0.390625 C 14.828125 0.390625 12.25 -0.0703125 9.96875 -1 C 7.6875 -1.9375 5.863281 -3.316406 4.5 -5.140625 C 3.144531 -6.972656 2.429688 -9.179688 2.359375 -11.765625 L 12.546875 -11.765625 C 12.691406 -10.304688 13.191406 -9.191406 14.046875 -8.421875 C 14.910156 -7.660156 16.035156 -7.28125 17.421875 -7.28125 C 18.835938 -7.28125 19.957031 -7.601562 20.78125 -8.25 C 21.601562 -8.90625 22.015625 -9.8125 22.015625 -10.96875 C 22.015625 -11.945312 21.6875 -12.753906 21.03125 -13.390625 C 20.375 -14.023438 19.566406 -14.546875 18.609375 -14.953125 C 17.660156 -15.359375 16.3125 -15.828125 14.5625 -16.359375 C 12.019531 -17.140625 9.945312 -17.921875 8.34375 -18.703125 C 6.738281 -19.484375 5.359375 -20.640625 4.203125 -22.171875 C 3.046875 -23.703125 2.46875 -25.703125 2.46875 -28.171875 C 2.46875 -31.828125 3.789062 -34.691406 6.4375 -36.765625 C 9.09375 -38.835938 12.546875 -39.875 16.796875 -39.875 C 21.128906 -39.875 24.617188 -38.835938 27.265625 -36.765625 C 29.921875 -34.691406 31.34375 -31.804688 31.53125 -28.109375 L 21.171875 -28.109375 C 21.097656 -29.378906 20.628906 -30.378906 19.765625 -31.109375 C 18.910156 -31.835938 17.8125 -32.203125 16.46875 -32.203125 C 15.3125 -32.203125 14.375 -31.894531 13.65625 -31.28125 C 12.945312 -30.664062 12.59375 -29.773438 12.59375 -28.609375 C 12.59375 -27.347656 13.191406 -26.359375 14.390625 -25.640625 C 15.585938 -24.929688 17.453125 -24.171875 19.984375 -23.359375 C 22.523438 -22.492188 24.585938 -21.671875 26.171875 -20.890625 C 27.765625 -20.109375 29.140625 -18.96875 30.296875 -17.46875 C 31.453125 -15.976562 32.03125 -14.054688 32.03125 -11.703125 C 32.03125 -9.460938 31.457031 -7.425781 30.3125 -5.59375 C 29.175781 -3.769531 27.523438 -2.316406 25.359375 -1.234375 C 23.203125 -0.148438 20.648438 0.390625 17.703125 0.390625 Z M 17.703125 0.390625 "/></g></g></g><g fill="#1c1a17" fill-opacity="1"><g transform="translate(267.720344, 153.399986)"><g><path d="M 17.703125 0.453125 C 14.640625 0.453125 11.882812 -0.195312 9.4375 -1.5 C 6.988281 -2.8125 5.0625 -4.679688 3.65625 -7.109375 C 2.257812 -9.535156 1.5625 -12.375 1.5625 -15.625 C 1.5625 -18.832031 2.269531 -21.660156 3.6875 -24.109375 C 5.113281 -26.554688 7.054688 -28.429688 9.515625 -29.734375 C 11.984375 -31.046875 14.75 -31.703125 17.8125 -31.703125 C 20.875 -31.703125 23.632812 -31.046875 26.09375 -29.734375 C 28.5625 -28.429688 30.503906 -26.554688 31.921875 -24.109375 C 33.335938 -21.660156 34.046875 -18.832031 34.046875 -15.625 C 34.046875 -12.414062 33.328125 -9.585938 31.890625 -7.140625 C 30.453125 -4.691406 28.488281 -2.8125 26 -1.5 C 23.519531 -0.195312 20.753906 0.453125 17.703125 0.453125 Z M 17.703125 -7.84375 C 19.523438 -7.84375 21.078125 -8.515625 22.359375 -9.859375 C 23.648438 -11.203125 24.296875 -13.125 24.296875 -15.625 C 24.296875 -18.125 23.671875 -20.046875 22.421875 -21.390625 C 21.171875 -22.734375 19.632812 -23.40625 17.8125 -23.40625 C 15.945312 -23.40625 14.394531 -22.742188 13.15625 -21.421875 C 11.925781 -20.097656 11.3125 -18.164062 11.3125 -15.625 C 11.3125 -13.125 11.914062 -11.203125 13.125 -9.859375 C 14.34375 -8.515625 15.867188 -7.84375 17.703125 -7.84375 Z M 17.703125 -7.84375 "/></g></g></g><g fill="#1c1a17" fill-opacity="1"><g transform="translate(303.387364, 153.399986)"><g><path d="M 13.046875 -41.4375 L 13.046875 0 L 3.46875 0 L 3.46875 -41.4375 Z M 13.046875 -41.4375 "/></g></g></g><g fill="#1c1a17" fill-opacity="1"><g transform="translate(319.905055, 153.399986)"><g><path d="M 34.328125 -31.25 L 34.328125 0 L 24.75 0 L 24.75 -4.25 C 23.78125 -2.875 22.460938 -1.765625 20.796875 -0.921875 C 19.140625 -0.078125 17.300781 0.34375 15.28125 0.34375 C 12.894531 0.34375 10.785156 -0.1875 8.953125 -1.25 C 7.128906 -2.320312 5.710938 -3.863281 4.703125 -5.875 C 3.691406 -7.894531 3.1875 -10.265625 3.1875 -12.984375 L 3.1875 -31.25 L 12.71875 -31.25 L 12.71875 -14.28125 C 12.71875 -12.1875 13.253906 -10.5625 14.328125 -9.40625 C 15.410156 -8.25 16.867188 -7.671875 18.703125 -7.671875 C 20.566406 -7.671875 22.039062 -8.25 23.125 -9.40625 C 24.207031 -10.5625 24.75 -12.1875 24.75 -14.28125 L 24.75 -31.25 Z M 34.328125 -31.25 "/></g></g></g><g fill="#1c1a17" fill-opacity="1"><g transform="translate(357.643787, 153.399986)"><g><path d="M 20.890625 -8.125 L 20.890625 0 L 16.015625 0 C 12.546875 0 9.835938 -0.847656 7.890625 -2.546875 C 5.953125 -4.242188 4.984375 -7.015625 4.984375 -10.859375 L 4.984375 -23.296875 L 1.171875 -23.296875 L 1.171875 -31.25 L 4.984375 -31.25 L 4.984375 -38.859375 L 14.5625 -38.859375 L 14.5625 -31.25 L 20.828125 -31.25 L 20.828125 -23.296875 L 14.5625 -23.296875 L 14.5625 -10.75 C 14.5625 -9.820312 14.785156 -9.148438 15.234375 -8.734375 C 15.679688 -8.328125 16.425781 -8.125 17.46875 -8.125 Z M 20.890625 -8.125 "/></g></g></g><g fill="#1c1a17" fill-opacity="1"><g transform="translate(380.376615, 153.399986)"><g><path d="M 8.28125 -34.5 C 6.601562 -34.5 5.234375 -34.992188 4.171875 -35.984375 C 3.109375 -36.972656 2.578125 -38.191406 2.578125 -39.640625 C 2.578125 -41.140625 3.109375 -42.382812 4.171875 -43.375 C 5.234375 -44.363281 6.601562 -44.859375 8.28125 -44.859375 C 9.925781 -44.859375 11.28125 -44.363281 12.34375 -43.375 C 13.40625 -42.382812 13.9375 -41.140625 13.9375 -39.640625 C 13.9375 -38.191406 13.40625 -36.972656 12.34375 -35.984375 C 11.28125 -34.992188 9.925781 -34.5 8.28125 -34.5 Z M 13.046875 -31.25 L 13.046875 0 L 3.46875 0 L 3.46875 -31.25 Z M 13.046875 -31.25 "/></g></g></g><g fill="#1c1a17" fill-opacity="1"><g transform="translate(396.894307, 153.399986)"><g><path d="M 17.703125 0.453125 C 14.640625 0.453125 11.882812 -0.195312 9.4375 -1.5 C 6.988281 -2.8125 5.0625 -4.679688 3.65625 -7.109375 C 2.257812 -9.535156 1.5625 -12.375 1.5625 -15.625 C 1.5625 -18.832031 2.269531 -21.660156 3.6875 -24.109375 C 5.113281 -26.554688 7.054688 -28.429688 9.515625 -29.734375 C 11.984375 -31.046875 14.75 -31.703125 17.8125 -31.703125 C 20.875 -31.703125 23.632812 -31.046875 26.09375 -29.734375 C 28.5625 -28.429688 30.503906 -26.554688 31.921875 -24.109375 C 33.335938 -21.660156 34.046875 -18.832031 34.046875 -15.625 C 34.046875 -12.414062 33.328125 -9.585938 31.890625 -7.140625 C 30.453125 -4.691406 28.488281 -2.8125 26 -1.5 C 23.519531 -0.195312 20.753906 0.453125 17.703125 0.453125 Z M 17.703125 -7.84375 C 19.523438 -7.84375 21.078125 -8.515625 22.359375 -9.859375 C 23.648438 -11.203125 24.296875 -13.125 24.296875 -15.625 C 24.296875 -18.125 23.671875 -20.046875 22.421875 -21.390625 C 21.171875 -22.734375 19.632812 -23.40625 17.8125 -23.40625 C 15.945312 -23.40625 14.394531 -22.742188 13.15625 -21.421875 C 11.925781 -20.097656 11.3125 -18.164062 11.3125 -15.625 C 11.3125 -13.125 11.914062 -11.203125 13.125 -9.859375 C 14.34375 -8.515625 15.867188 -7.84375 17.703125 -7.84375 Z M 17.703125 -7.84375 "/></g></g></g><g fill="#1c1a17" fill-opacity="1"><g transform="translate(432.561338, 153.399986)"><g><path d="M 22.515625 -31.578125 C 26.171875 -31.578125 29.085938 -30.390625 31.265625 -28.015625 C 33.453125 -25.648438 34.546875 -22.394531 34.546875 -18.25 L 34.546875 0 L 25.03125 0 L 25.03125 -16.96875 C 25.03125 -19.0625 24.488281 -20.6875 23.40625 -21.84375 C 22.320312 -23 20.867188 -23.578125 19.046875 -23.578125 C 17.210938 -23.578125 15.753906 -23 14.671875 -21.84375 C 13.585938 -20.6875 13.046875 -19.0625 13.046875 -16.96875 L 13.046875 0 L 3.46875 0 L 3.46875 -31.25 L 13.046875 -31.25 L 13.046875 -27.109375 C 14.015625 -28.484375 15.320312 -29.570312 16.96875 -30.375 C 18.613281 -31.175781 20.460938 -31.578125 22.515625 -31.578125 Z M 22.515625 -31.578125 "/></g></g></g><g fill="#1c1a17" fill-opacity="1"><g transform="translate(470.300059, 153.399986)"><g><path d="M 16.1875 0.453125 C 13.457031 0.453125 11.03125 -0.015625 8.90625 -0.953125 C 6.78125 -1.890625 5.097656 -3.164062 3.859375 -4.78125 C 2.628906 -6.40625 1.941406 -8.226562 1.796875 -10.25 L 11.25 -10.25 C 11.363281 -9.164062 11.867188 -8.285156 12.765625 -7.609375 C 13.660156 -6.941406 14.765625 -6.609375 16.078125 -6.609375 C 17.265625 -6.609375 18.1875 -6.84375 18.84375 -7.3125 C 19.5 -7.78125 19.828125 -8.382812 19.828125 -9.125 C 19.828125 -10.019531 19.359375 -10.679688 18.421875 -11.109375 C 17.492188 -11.546875 15.984375 -12.023438 13.890625 -12.546875 C 11.648438 -13.066406 9.78125 -13.613281 8.28125 -14.1875 C 6.789062 -14.769531 5.503906 -15.6875 4.421875 -16.9375 C 3.335938 -18.1875 2.796875 -19.878906 2.796875 -22.015625 C 2.796875 -23.804688 3.289062 -25.4375 4.28125 -26.90625 C 5.269531 -28.382812 6.722656 -29.550781 8.640625 -30.40625 C 10.566406 -31.269531 12.859375 -31.703125 15.515625 -31.703125 C 19.429688 -31.703125 22.519531 -30.726562 24.78125 -28.78125 C 27.039062 -26.84375 28.335938 -24.269531 28.671875 -21.0625 L 19.828125 -21.0625 C 19.671875 -22.144531 19.191406 -23 18.390625 -23.625 C 17.585938 -24.257812 16.535156 -24.578125 15.234375 -24.578125 C 14.109375 -24.578125 13.25 -24.363281 12.65625 -23.9375 C 12.0625 -23.507812 11.765625 -22.921875 11.765625 -22.171875 C 11.765625 -21.273438 12.238281 -20.601562 13.1875 -20.15625 C 14.132812 -19.707031 15.617188 -19.257812 17.640625 -18.8125 C 19.953125 -18.21875 21.835938 -17.628906 23.296875 -17.046875 C 24.753906 -16.472656 26.03125 -15.539062 27.125 -14.25 C 28.226562 -12.957031 28.800781 -11.234375 28.84375 -9.078125 C 28.84375 -7.242188 28.328125 -5.609375 27.296875 -4.171875 C 26.273438 -2.734375 24.800781 -1.601562 22.875 -0.78125 C 20.945312 0.0390625 18.71875 0.453125 16.1875 0.453125 Z M 16.1875 0.453125 "/></g></g></g><g fill="#9ca3af" fill-opacity="1"><g transform="translate(112.500009, 192.999975)"><g><path d="M 4.40625 0 L 0.421875 -14.546875 L 2.21875 -14.546875 L 5.25 -2.703125 L 5.390625 -2.703125 L 8.5 -14.546875 L 10.484375 -14.546875 L 13.578125 -2.703125 L 13.71875 -2.703125 L 16.765625 -14.546875 L 18.546875 -14.546875 L 14.578125 0 L 12.75 0 L 9.546875 -11.59375 L 9.4375 -11.59375 L 6.21875 0 Z M 4.40625 0 "/></g></g></g><g fill="#9ca3af" fill-opacity="1"><g transform="translate(131.469734, 192.999975)"><g><path d="M 6.109375 0.234375 C 5.054688 0.234375 4.148438 0 3.390625 -0.46875 C 2.628906 -0.9375 2.039062 -1.585938 1.625 -2.421875 C 1.21875 -3.265625 1.015625 -4.25 1.015625 -5.375 C 1.015625 -6.488281 1.21875 -7.472656 1.625 -8.328125 C 2.039062 -9.179688 2.613281 -9.847656 3.34375 -10.328125 C 4.082031 -10.804688 4.945312 -11.046875 5.9375 -11.046875 C 6.507812 -11.046875 7.070312 -10.953125 7.625 -10.765625 C 8.175781 -10.578125 8.675781 -10.269531 9.125 -9.84375 C 9.582031 -9.425781 9.945312 -8.867188 10.21875 -8.171875 C 10.488281 -7.472656 10.625 -6.613281 10.625 -5.59375 L 10.625 -4.890625 L 2.703125 -4.890625 C 2.742188 -3.722656 3.070312 -2.828125 3.6875 -2.203125 C 4.3125 -1.585938 5.117188 -1.28125 6.109375 -1.28125 C 6.765625 -1.28125 7.328125 -1.421875 7.796875 -1.703125 C 8.273438 -1.984375 8.617188 -2.410156 8.828125 -2.984375 L 10.453125 -2.53125 C 10.203125 -1.707031 9.691406 -1.039062 8.921875 -0.53125 C 8.148438 -0.0195312 7.210938 0.234375 6.109375 0.234375 Z M 2.703125 -6.328125 L 8.921875 -6.328125 C 8.921875 -7.253906 8.648438 -8.019531 8.109375 -8.625 C 7.566406 -9.238281 6.84375 -9.546875 5.9375 -9.546875 C 5.300781 -9.546875 4.75 -9.394531 4.28125 -9.09375 C 3.8125 -8.800781 3.441406 -8.410156 3.171875 -7.921875 C 2.898438 -7.429688 2.742188 -6.898438 2.703125 -6.328125 Z M 2.703125 -6.328125 "/></g></g></g><g fill="#9ca3af" fill-opacity="1"><g transform="translate(143.112826, 192.999975)"><g><path d="M 1.765625 0 L 1.765625 -14.546875 L 3.4375 -14.546875 L 3.4375 -9.171875 L 3.578125 -9.171875 C 3.703125 -9.359375 3.875 -9.597656 4.09375 -9.890625 C 4.3125 -10.191406 4.628906 -10.457031 5.046875 -10.6875 C 5.460938 -10.925781 6.023438 -11.046875 6.734375 -11.046875 C 7.648438 -11.046875 8.457031 -10.816406 9.15625 -10.359375 C 9.863281 -9.898438 10.410156 -9.25 10.796875 -8.40625 C 11.191406 -7.5625 11.390625 -6.566406 11.390625 -5.421875 C 11.390625 -4.265625 11.191406 -3.265625 10.796875 -2.421875 C 10.410156 -1.578125 9.867188 -0.921875 9.171875 -0.453125 C 8.472656 0.00390625 7.671875 0.234375 6.765625 0.234375 C 6.054688 0.234375 5.492188 0.117188 5.078125 -0.109375 C 4.660156 -0.347656 4.335938 -0.617188 4.109375 -0.921875 C 3.878906 -1.222656 3.703125 -1.472656 3.578125 -1.671875 L 3.375 -1.671875 L 3.375 0 Z M 3.40625 -5.453125 C 3.40625 -4.210938 3.671875 -3.207031 4.203125 -2.4375 C 4.742188 -1.664062 5.519531 -1.28125 6.53125 -1.28125 C 7.226562 -1.28125 7.8125 -1.460938 8.28125 -1.828125 C 8.757812 -2.203125 9.117188 -2.707031 9.359375 -3.34375 C 9.597656 -3.976562 9.71875 -4.679688 9.71875 -5.453125 C 9.71875 -6.222656 9.597656 -6.914062 9.359375 -7.53125 C 9.128906 -8.144531 8.773438 -8.632812 8.296875 -9 C 7.828125 -9.363281 7.238281 -9.546875 6.53125 -9.546875 C 5.507812 -9.546875 4.734375 -9.164062 4.203125 -8.40625 C 3.671875 -7.65625 3.40625 -6.671875 3.40625 -5.453125 Z M 3.40625 -5.453125 "/></g></g></g><g fill="#9ca3af" fill-opacity="1"><g transform="translate(155.522661, 192.999975)"><g><path d="M 5.65625 0.234375 C 4.75 0.234375 3.945312 0.00390625 3.25 -0.453125 C 2.550781 -0.921875 2.003906 -1.578125 1.609375 -2.421875 C 1.210938 -3.265625 1.015625 -4.265625 1.015625 -5.421875 C 1.015625 -6.566406 1.210938 -7.5625 1.609375 -8.40625 C 2.003906 -9.25 2.550781 -9.898438 3.25 -10.359375 C 3.945312 -10.816406 4.757812 -11.046875 5.6875 -11.046875 C 6.394531 -11.046875 6.953125 -10.925781 7.359375 -10.6875 C 7.773438 -10.457031 8.09375 -10.191406 8.3125 -9.890625 C 8.539062 -9.597656 8.710938 -9.359375 8.828125 -9.171875 L 8.984375 -9.171875 L 8.984375 -14.546875 L 10.65625 -14.546875 L 10.65625 0 L 9.03125 0 L 9.03125 -1.671875 L 8.828125 -1.671875 C 8.710938 -1.472656 8.539062 -1.222656 8.3125 -0.921875 C 8.082031 -0.617188 7.753906 -0.347656 7.328125 -0.109375 C 6.910156 0.117188 6.351562 0.234375 5.65625 0.234375 Z M 5.875 -1.28125 C 6.882812 -1.28125 7.65625 -1.664062 8.1875 -2.4375 C 8.726562 -3.207031 9 -4.210938 9 -5.453125 C 9 -6.671875 8.734375 -7.65625 8.203125 -8.40625 C 7.679688 -9.164062 6.90625 -9.546875 5.875 -9.546875 C 5.164062 -9.546875 4.578125 -9.363281 4.109375 -9 C 3.640625 -8.632812 3.285156 -8.144531 3.046875 -7.53125 C 2.816406 -6.914062 2.703125 -6.222656 2.703125 -5.453125 C 2.703125 -4.679688 2.820312 -3.976562 3.0625 -3.34375 C 3.300781 -2.707031 3.65625 -2.203125 4.125 -1.828125 C 4.59375 -1.460938 5.175781 -1.28125 5.875 -1.28125 Z M 5.875 -1.28125 "/></g></g></g><g fill="#9ca3af" fill-opacity="1"><g transform="translate(167.932496, 192.999975)"><g><path d="M 6.109375 0.234375 C 5.054688 0.234375 4.148438 0 3.390625 -0.46875 C 2.628906 -0.9375 2.039062 -1.585938 1.625 -2.421875 C 1.21875 -3.265625 1.015625 -4.25 1.015625 -5.375 C 1.015625 -6.488281 1.21875 -7.472656 1.625 -8.328125 C 2.039062 -9.179688 2.613281 -9.847656 3.34375 -10.328125 C 4.082031 -10.804688 4.945312 -11.046875 5.9375 -11.046875 C 6.507812 -11.046875 7.070312 -10.953125 7.625 -10.765625 C 8.175781 -10.578125 8.675781 -10.269531 9.125 -9.84375 C 9.582031 -9.425781 9.945312 -8.867188 10.21875 -8.171875 C 10.488281 -7.472656 10.625 -6.613281 10.625 -5.59375 L 10.625 -4.890625 L 2.703125 -4.890625 C 2.742188 -3.722656 3.070312 -2.828125 3.6875 -2.203125 C 4.3125 -1.585938 5.117188 -1.28125 6.109375 -1.28125 C 6.765625 -1.28125 7.328125 -1.421875 7.796875 -1.703125 C 8.273438 -1.984375 8.617188 -2.410156 8.828125 -2.984375 L 10.453125 -2.53125 C 10.203125 -1.707031 9.691406 -1.039062 8.921875 -0.53125 C 8.148438 -0.0195312 7.210938 0.234375 6.109375 0.234375 Z M 2.703125 -6.328125 L 8.921875 -6.328125 C 8.921875 -7.253906 8.648438 -8.019531 8.109375 -8.625 C 7.566406 -9.238281 6.84375 -9.546875 5.9375 -9.546875 C 5.300781 -9.546875 4.75 -9.394531 4.28125 -9.09375 C 3.8125 -8.800781 3.441406 -8.410156 3.171875 -7.921875 C 2.898438 -7.429688 2.742188 -6.898438 2.703125 -6.328125 Z M 2.703125 -6.328125 "/></g></g></g><g fill="#9ca3af" fill-opacity="1"><g transform="translate(179.575588, 192.999975)"><g><path d="M 9.265625 -8.46875 L 7.75 -8.046875 C 7.601562 -8.421875 7.359375 -8.773438 7.015625 -9.109375 C 6.671875 -9.441406 6.128906 -9.609375 5.390625 -9.609375 C 4.722656 -9.609375 4.164062 -9.453125 3.71875 -9.140625 C 3.28125 -8.835938 3.0625 -8.453125 3.0625 -7.984375 C 3.0625 -7.566406 3.210938 -7.238281 3.515625 -7 C 3.828125 -6.757812 4.300781 -6.554688 4.9375 -6.390625 L 6.5625 -6 C 8.488281 -5.519531 9.453125 -4.535156 9.453125 -3.046875 C 9.453125 -2.421875 9.273438 -1.859375 8.921875 -1.359375 C 8.566406 -0.867188 8.066406 -0.476562 7.421875 -0.1875 C 6.785156 0.09375 6.046875 0.234375 5.203125 0.234375 C 4.085938 0.234375 3.164062 -0.00390625 2.4375 -0.484375 C 1.707031 -0.972656 1.242188 -1.679688 1.046875 -2.609375 L 2.640625 -3.015625 C 2.941406 -1.835938 3.785156 -1.25 5.171875 -1.25 C 5.953125 -1.25 6.570312 -1.414062 7.03125 -1.75 C 7.5 -2.082031 7.734375 -2.484375 7.734375 -2.953125 C 7.734375 -3.722656 7.191406 -4.234375 6.109375 -4.484375 L 4.296875 -4.921875 C 3.296875 -5.148438 2.5625 -5.515625 2.09375 -6.015625 C 1.625 -6.515625 1.390625 -7.140625 1.390625 -7.890625 C 1.390625 -8.515625 1.5625 -9.0625 1.90625 -9.53125 C 2.257812 -10 2.738281 -10.367188 3.34375 -10.640625 C 3.945312 -10.910156 4.628906 -11.046875 5.390625 -11.046875 C 6.472656 -11.046875 7.320312 -10.804688 7.9375 -10.328125 C 8.5625 -9.859375 9.003906 -9.238281 9.265625 -8.46875 Z M 9.265625 -8.46875 "/></g></g></g><g fill="#9ca3af" fill-opacity="1"><g transform="translate(190.025977, 192.999975)"><g><path d="M 1.53125 0 L 1.53125 -10.90625 L 3.203125 -10.90625 L 3.203125 0 Z M 2.390625 -12.734375 C 2.054688 -12.734375 1.769531 -12.84375 1.53125 -13.0625 C 1.300781 -13.28125 1.1875 -13.546875 1.1875 -13.859375 C 1.1875 -14.171875 1.300781 -14.4375 1.53125 -14.65625 C 1.769531 -14.882812 2.054688 -15 2.390625 -15 C 2.710938 -15 2.988281 -14.882812 3.21875 -14.65625 C 3.457031 -14.4375 3.578125 -14.171875 3.578125 -13.859375 C 3.578125 -13.546875 3.457031 -13.28125 3.21875 -13.0625 C 2.988281 -12.84375 2.710938 -12.734375 2.390625 -12.734375 Z M 2.390625 -12.734375 "/></g></g></g><g fill="#9ca3af" fill-opacity="1"><g transform="translate(194.768408, 192.999975)"><g><path d="M 5.9375 4.3125 C 4.71875 4.3125 3.753906 4.085938 3.046875 3.640625 C 2.335938 3.203125 1.816406 2.695312 1.484375 2.125 L 2.8125 1.1875 C 2.96875 1.382812 3.160156 1.613281 3.390625 1.875 C 3.617188 2.132812 3.9375 2.359375 4.34375 2.546875 C 4.75 2.742188 5.28125 2.84375 5.9375 2.84375 C 6.820312 2.84375 7.550781 2.628906 8.125 2.203125 C 8.695312 1.773438 8.984375 1.109375 8.984375 0.203125 L 8.984375 -2.015625 L 8.828125 -2.015625 C 8.710938 -1.816406 8.539062 -1.570312 8.3125 -1.28125 C 8.082031 -0.988281 7.757812 -0.726562 7.34375 -0.5 C 6.925781 -0.28125 6.363281 -0.171875 5.65625 -0.171875 C 4.769531 -0.171875 3.976562 -0.378906 3.28125 -0.796875 C 2.582031 -1.210938 2.03125 -1.816406 1.625 -2.609375 C 1.21875 -3.410156 1.015625 -4.378906 1.015625 -5.515625 C 1.015625 -6.628906 1.210938 -7.601562 1.609375 -8.4375 C 2.003906 -9.269531 2.550781 -9.910156 3.25 -10.359375 C 3.945312 -10.816406 4.757812 -11.046875 5.6875 -11.046875 C 6.394531 -11.046875 6.957031 -10.925781 7.375 -10.6875 C 7.789062 -10.457031 8.109375 -10.191406 8.328125 -9.890625 C 8.554688 -9.597656 8.734375 -9.359375 8.859375 -9.171875 L 9.03125 -9.171875 L 9.03125 -10.90625 L 10.65625 -10.90625 L 10.65625 0.3125 C 10.65625 1.25 10.441406 2.007812 10.015625 2.59375 C 9.585938 3.1875 9.019531 3.617188 8.3125 3.890625 C 7.601562 4.171875 6.8125 4.3125 5.9375 4.3125 Z M 5.875 -1.671875 C 6.882812 -1.671875 7.65625 -2.015625 8.1875 -2.703125 C 8.726562 -3.390625 9 -4.335938 9 -5.546875 C 9 -6.722656 8.734375 -7.679688 8.203125 -8.421875 C 7.679688 -9.171875 6.90625 -9.546875 5.875 -9.546875 C 5.164062 -9.546875 4.578125 -9.363281 4.109375 -9 C 3.640625 -8.644531 3.285156 -8.160156 3.046875 -7.546875 C 2.816406 -6.941406 2.703125 -6.273438 2.703125 -5.546875 C 2.703125 -4.398438 2.96875 -3.46875 3.5 -2.75 C 4.03125 -2.03125 4.820312 -1.671875 5.875 -1.671875 Z M 5.875 -1.671875 "/></g></g></g><g fill="#9ca3af" fill-opacity="1"><g transform="translate(206.951066, 192.999975)"><g><path d="M 3.203125 -6.5625 L 3.203125 0 L 1.53125 0 L 1.53125 -10.90625 L 3.15625 -10.90625 L 3.15625 -9.203125 L 3.296875 -9.203125 C 3.546875 -9.753906 3.929688 -10.195312 4.453125 -10.53125 C 4.972656 -10.875 5.648438 -11.046875 6.484375 -11.046875 C 7.578125 -11.046875 8.460938 -10.707031 9.140625 -10.03125 C 9.828125 -9.351562 10.171875 -8.320312 10.171875 -6.9375 L 10.171875 0 L 8.5 0 L 8.5 -6.8125 C 8.5 -7.675781 8.273438 -8.347656 7.828125 -8.828125 C 7.378906 -9.304688 6.769531 -9.546875 6 -9.546875 C 5.195312 -9.546875 4.53125 -9.285156 4 -8.765625 C 3.46875 -8.242188 3.203125 -7.507812 3.203125 -6.5625 Z M 3.203125 -6.5625 "/></g></g></g><g fill="#9ca3af" fill-opacity="1"><g transform="translate(224.273723, 192.999975)"><g><path d="M 2.78125 -6.21875 C 2.4375 -6.21875 2.140625 -6.34375 1.890625 -6.59375 C 1.640625 -6.84375 1.515625 -7.144531 1.515625 -7.5 C 1.515625 -7.84375 1.640625 -8.140625 1.890625 -8.390625 C 2.140625 -8.640625 2.4375 -8.765625 2.78125 -8.765625 C 3.132812 -8.765625 3.4375 -8.640625 3.6875 -8.390625 C 3.9375 -8.140625 4.0625 -7.84375 4.0625 -7.5 C 4.0625 -7.144531 3.9375 -6.84375 3.6875 -6.59375 C 3.4375 -6.34375 3.132812 -6.21875 2.78125 -6.21875 Z M 2.78125 -6.21875 "/></g></g></g><g fill="#9ca3af" fill-opacity="1"><g transform="translate(235.462462, 192.999975)"><g><path d="M 3.515625 -14.546875 L 3.515625 0 L 1.765625 0 L 1.765625 -14.546875 Z M 3.515625 -14.546875 "/></g></g></g><g fill="#9ca3af" fill-opacity="1"><g transform="translate(240.744448, 192.999975)"><g><path d="M 0.96875 -12.984375 L 0.96875 -14.546875 L 11.875 -14.546875 L 11.875 -12.984375 L 7.296875 -12.984375 L 7.296875 0 L 5.546875 0 L 5.546875 -12.984375 Z M 0.96875 -12.984375 "/></g></g></g><g fill="#9ca3af" fill-opacity="1"><g transform="translate(259.203022, 192.999975)"><g><path d="M 2.78125 -6.21875 C 2.4375 -6.21875 2.140625 -6.34375 1.890625 -6.59375 C 1.640625 -6.84375 1.515625 -7.144531 1.515625 -7.5 C 1.515625 -7.84375 1.640625 -8.140625 1.890625 -8.390625 C 2.140625 -8.640625 2.4375 -8.765625 2.78125 -8.765625 C 3.132812 -8.765625 3.4375 -8.640625 3.6875 -8.390625 C 3.9375 -8.140625 4.0625 -7.84375 4.0625 -7.5 C 4.0625 -7.144531 3.9375 -6.84375 3.6875 -6.59375 C 3.4375 -6.34375 3.132812 -6.21875 2.78125 -6.21875 Z M 2.78125 -6.21875 "/></g></g></g><g fill="#9ca3af" fill-opacity="1"><g transform="translate(270.391761, 192.999975)"><g><path d="M 1.765625 0 L 1.765625 -14.546875 L 6.84375 -14.546875 C 7.851562 -14.546875 8.6875 -14.367188 9.34375 -14.015625 C 10.007812 -13.671875 10.503906 -13.207031 10.828125 -12.625 C 11.148438 -12.039062 11.3125 -11.394531 11.3125 -10.6875 C 11.3125 -10.0625 11.195312 -9.539062 10.96875 -9.125 C 10.75 -8.71875 10.460938 -8.394531 10.109375 -8.15625 C 9.753906 -7.925781 9.367188 -7.753906 8.953125 -7.640625 L 8.953125 -7.5 C 9.390625 -7.46875 9.832031 -7.3125 10.28125 -7.03125 C 10.738281 -6.75 11.117188 -6.34375 11.421875 -5.8125 C 11.722656 -5.28125 11.875 -4.628906 11.875 -3.859375 C 11.875 -3.128906 11.707031 -2.472656 11.375 -1.890625 C 11.039062 -1.304688 10.515625 -0.84375 9.796875 -0.5 C 9.085938 -0.164062 8.160156 0 7.015625 0 Z M 3.515625 -1.5625 L 7.015625 -1.5625 C 8.171875 -1.5625 8.988281 -1.785156 9.46875 -2.234375 C 9.957031 -2.679688 10.203125 -3.222656 10.203125 -3.859375 C 10.203125 -4.359375 10.078125 -4.816406 9.828125 -5.234375 C 9.578125 -5.648438 9.21875 -5.984375 8.75 -6.234375 C 8.28125 -6.492188 7.734375 -6.625 7.109375 -6.625 L 3.515625 -6.625 Z M 3.515625 -8.15625 L 6.796875 -8.15625 C 7.585938 -8.15625 8.253906 -8.382812 8.796875 -8.84375 C 9.347656 -9.300781 9.625 -9.914062 9.625 -10.6875 C 9.625 -11.320312 9.398438 -11.863281 8.953125 -12.3125 C 8.515625 -12.757812 7.8125 -12.984375 6.84375 -12.984375 L 3.515625 -12.984375 Z M 3.515625 -8.15625 "/></g></g></g><g fill="#9ca3af" fill-opacity="1"><g transform="translate(283.397947, 192.999975)"><g><path d="M 1.53125 0 L 1.53125 -10.90625 L 3.15625 -10.90625 L 3.15625 -9.265625 L 3.265625 -9.265625 C 3.460938 -9.804688 3.820312 -10.242188 4.34375 -10.578125 C 4.863281 -10.910156 5.453125 -11.078125 6.109375 -11.078125 C 6.410156 -11.078125 6.675781 -11.039062 6.90625 -10.96875 C 7.132812 -10.894531 7.332031 -10.800781 7.5 -10.6875 L 6.9375 -9.265625 C 6.8125 -9.328125 6.671875 -9.375 6.515625 -9.40625 C 6.359375 -9.4375 6.175781 -9.453125 5.96875 -9.453125 C 5.164062 -9.453125 4.503906 -9.207031 3.984375 -8.71875 C 3.460938 -8.238281 3.203125 -7.632812 3.203125 -6.90625 L 3.203125 0 Z M 1.53125 0 "/></g></g></g><g fill="#9ca3af" fill-opacity="1"><g transform="translate(291.065351, 192.999975)"><g><path d="M 4.75 0.25 C 4.050781 0.25 3.421875 0.117188 2.859375 -0.140625 C 2.296875 -0.398438 1.847656 -0.78125 1.515625 -1.28125 C 1.179688 -1.78125 1.015625 -2.382812 1.015625 -3.09375 C 1.015625 -3.71875 1.140625 -4.222656 1.390625 -4.609375 C 1.640625 -5.003906 1.96875 -5.3125 2.375 -5.53125 C 2.789062 -5.757812 3.25 -5.925781 3.75 -6.03125 C 4.25 -6.144531 4.75 -6.238281 5.25 -6.3125 C 5.914062 -6.394531 6.457031 -6.457031 6.875 -6.5 C 7.289062 -6.539062 7.59375 -6.613281 7.78125 -6.71875 C 7.96875 -6.832031 8.0625 -7.023438 8.0625 -7.296875 L 8.0625 -7.359375 C 8.0625 -8.054688 7.867188 -8.597656 7.484375 -8.984375 C 7.109375 -9.378906 6.535156 -9.578125 5.765625 -9.578125 C 4.960938 -9.578125 4.332031 -9.398438 3.875 -9.046875 C 3.425781 -8.691406 3.109375 -8.316406 2.921875 -7.921875 L 1.328125 -8.5 C 1.617188 -9.15625 2 -9.671875 2.46875 -10.046875 C 2.945312 -10.421875 3.46875 -10.679688 4.03125 -10.828125 C 4.601562 -10.972656 5.160156 -11.046875 5.703125 -11.046875 C 6.054688 -11.046875 6.460938 -11.003906 6.921875 -10.921875 C 7.378906 -10.835938 7.820312 -10.664062 8.25 -10.40625 C 8.675781 -10.15625 9.03125 -9.769531 9.3125 -9.25 C 9.601562 -8.738281 9.75 -8.050781 9.75 -7.1875 L 9.75 0 L 8.0625 0 L 8.0625 -1.484375 L 7.984375 -1.484375 C 7.867188 -1.242188 7.675781 -0.988281 7.40625 -0.71875 C 7.144531 -0.445312 6.796875 -0.21875 6.359375 -0.03125 C 5.921875 0.15625 5.382812 0.25 4.75 0.25 Z M 5 -1.25 C 5.664062 -1.25 6.222656 -1.378906 6.671875 -1.640625 C 7.128906 -1.898438 7.472656 -2.234375 7.703125 -2.640625 C 7.941406 -3.054688 8.0625 -3.492188 8.0625 -3.953125 L 8.0625 -5.484375 C 8 -5.398438 7.847656 -5.320312 7.609375 -5.25 C 7.367188 -5.1875 7.09375 -5.128906 6.78125 -5.078125 C 6.46875 -5.023438 6.164062 -4.976562 5.875 -4.9375 C 5.582031 -4.90625 5.347656 -4.878906 5.171875 -4.859375 C 4.734375 -4.796875 4.328125 -4.703125 3.953125 -4.578125 C 3.578125 -4.453125 3.273438 -4.265625 3.046875 -4.015625 C 2.816406 -3.773438 2.703125 -3.441406 2.703125 -3.015625 C 2.703125 -2.429688 2.914062 -1.988281 3.34375 -1.6875 C 3.78125 -1.394531 4.332031 -1.25 5 -1.25 Z M 5 -1.25 "/></g></g></g><g fill="#9ca3af" fill-opacity="1"><g transform="translate(302.33928, 192.999975)"><g><path d="M 3.203125 -6.5625 L 3.203125 0 L 1.53125 0 L 1.53125 -10.90625 L 3.15625 -10.90625 L 3.15625 -9.203125 L 3.296875 -9.203125 C 3.546875 -9.753906 3.929688 -10.195312 4.453125 -10.53125 C 4.972656 -10.875 5.648438 -11.046875 6.484375 -11.046875 C 7.578125 -11.046875 8.460938 -10.707031 9.140625 -10.03125 C 9.828125 -9.351562 10.171875 -8.320312 10.171875 -6.9375 L 10.171875 0 L 8.5 0 L 8.5 -6.8125 C 8.5 -7.675781 8.273438 -8.347656 7.828125 -8.828125 C 7.378906 -9.304688 6.769531 -9.546875 6 -9.546875 C 5.195312 -9.546875 4.53125 -9.285156 4 -8.765625 C 3.46875 -8.242188 3.203125 -7.507812 3.203125 -6.5625 Z M 3.203125 -6.5625 "/></g></g></g><g fill="#9ca3af" fill-opacity="1"><g transform="translate(314.039169, 192.999975)"><g><path d="M 5.65625 0.234375 C 4.75 0.234375 3.945312 0.00390625 3.25 -0.453125 C 2.550781 -0.921875 2.003906 -1.578125 1.609375 -2.421875 C 1.210938 -3.265625 1.015625 -4.265625 1.015625 -5.421875 C 1.015625 -6.566406 1.210938 -7.5625 1.609375 -8.40625 C 2.003906 -9.25 2.550781 -9.898438 3.25 -10.359375 C 3.945312 -10.816406 4.757812 -11.046875 5.6875 -11.046875 C 6.394531 -11.046875 6.953125 -10.925781 7.359375 -10.6875 C 7.773438 -10.457031 8.09375 -10.191406 8.3125 -9.890625 C 8.539062 -9.597656 8.710938 -9.359375 8.828125 -9.171875 L 8.984375 -9.171875 L 8.984375 -14.546875 L 10.65625 -14.546875 L 10.65625 0 L 9.03125 0 L 9.03125 -1.671875 L 8.828125 -1.671875 C 8.710938 -1.472656 8.539062 -1.222656 8.3125 -0.921875 C 8.082031 -0.617188 7.753906 -0.347656 7.328125 -0.109375 C 6.910156 0.117188 6.351562 0.234375 5.65625 0.234375 Z M 5.875 -1.28125 C 6.882812 -1.28125 7.65625 -1.664062 8.1875 -2.4375 C 8.726562 -3.207031 9 -4.210938 9 -5.453125 C 9 -6.671875 8.734375 -7.65625 8.203125 -8.40625 C 7.679688 -9.164062 6.90625 -9.546875 5.875 -9.546875 C 5.164062 -9.546875 4.578125 -9.363281 4.109375 -9 C 3.640625 -8.632812 3.285156 -8.144531 3.046875 -7.53125 C 2.816406 -6.914062 2.703125 -6.222656 2.703125 -5.453125 C 2.703125 -4.679688 2.820312 -3.976562 3.0625 -3.34375 C 3.300781 -2.707031 3.65625 -2.203125 4.125 -1.828125 C 4.59375 -1.460938 5.175781 -1.28125 5.875 -1.28125 Z M 5.875 -1.28125 "/></g></g></g><g fill="#9ca3af" fill-opacity="1"><g transform="translate(326.449004, 192.999975)"><g><path d="M 1.53125 0 L 1.53125 -10.90625 L 3.203125 -10.90625 L 3.203125 0 Z M 2.390625 -12.734375 C 2.054688 -12.734375 1.769531 -12.84375 1.53125 -13.0625 C 1.300781 -13.28125 1.1875 -13.546875 1.1875 -13.859375 C 1.1875 -14.171875 1.300781 -14.4375 1.53125 -14.65625 C 1.769531 -14.882812 2.054688 -15 2.390625 -15 C 2.710938 -15 2.988281 -14.882812 3.21875 -14.65625 C 3.457031 -14.4375 3.578125 -14.171875 3.578125 -13.859375 C 3.578125 -13.546875 3.457031 -13.28125 3.21875 -13.0625 C 2.988281 -12.84375 2.710938 -12.734375 2.390625 -12.734375 Z M 2.390625 -12.734375 "/></g></g></g><g fill="#9ca3af" fill-opacity="1"><g transform="translate(331.191435, 192.999975)"><g><path d="M 3.203125 -6.5625 L 3.203125 0 L 1.53125 0 L 1.53125 -10.90625 L 3.15625 -10.90625 L 3.15625 -9.203125 L 3.296875 -9.203125 C 3.546875 -9.753906 3.929688 -10.195312 4.453125 -10.53125 C 4.972656 -10.875 5.648438 -11.046875 6.484375 -11.046875 C 7.578125 -11.046875 8.460938 -10.707031 9.140625 -10.03125 C 9.828125 -9.351562 10.171875 -8.320312 10.171875 -6.9375 L 10.171875 0 L 8.5 0 L 8.5 -6.8125 C 8.5 -7.675781 8.273438 -8.347656 7.828125 -8.828125 C 7.378906 -9.304688 6.769531 -9.546875 6 -9.546875 C 5.195312 -9.546875 4.53125 -9.285156 4 -8.765625 C 3.46875 -8.242188 3.203125 -7.507812 3.203125 -6.5625 Z M 3.203125 -6.5625 "/></g></g></g><g fill="#9ca3af" fill-opacity="1"><g transform="translate(342.891324, 192.999975)"><g><path d="M 5.9375 4.3125 C 4.71875 4.3125 3.753906 4.085938 3.046875 3.640625 C 2.335938 3.203125 1.816406 2.695312 1.484375 2.125 L 2.8125 1.1875 C 2.96875 1.382812 3.160156 1.613281 3.390625 1.875 C 3.617188 2.132812 3.9375 2.359375 4.34375 2.546875 C 4.75 2.742188 5.28125 2.84375 5.9375 2.84375 C 6.820312 2.84375 7.550781 2.628906 8.125 2.203125 C 8.695312 1.773438 8.984375 1.109375 8.984375 0.203125 L 8.984375 -2.015625 L 8.828125 -2.015625 C 8.710938 -1.816406 8.539062 -1.570312 8.3125 -1.28125 C 8.082031 -0.988281 7.757812 -0.726562 7.34375 -0.5 C 6.925781 -0.28125 6.363281 -0.171875 5.65625 -0.171875 C 4.769531 -0.171875 3.976562 -0.378906 3.28125 -0.796875 C 2.582031 -1.210938 2.03125 -1.816406 1.625 -2.609375 C 1.21875 -3.410156 1.015625 -4.378906 1.015625 -5.515625 C 1.015625 -6.628906 1.210938 -7.601562 1.609375 -8.4375 C 2.003906 -9.269531 2.550781 -9.910156 3.25 -10.359375 C 3.945312 -10.816406 4.757812 -11.046875 5.6875 -11.046875 C 6.394531 -11.046875 6.957031 -10.925781 7.375 -10.6875 C 7.789062 -10.457031 8.109375 -10.191406 8.328125 -9.890625 C 8.554688 -9.597656 8.734375 -9.359375 8.859375 -9.171875 L 9.03125 -9.171875 L 9.03125 -10.90625 L 10.65625 -10.90625 L 10.65625 0.3125 C 10.65625 1.25 10.441406 2.007812 10.015625 2.59375 C 9.585938 3.1875 9.019531 3.617188 8.3125 3.890625 C 7.601562 4.171875 6.8125 4.3125 5.9375 4.3125 Z M 5.875 -1.671875 C 6.882812 -1.671875 7.65625 -2.015625 8.1875 -2.703125 C 8.726562 -3.390625 9 -4.335938 9 -5.546875 C 9 -6.722656 8.734375 -7.679688 8.203125 -8.421875 C 7.679688 -9.171875 6.90625 -9.546875 5.875 -9.546875 C 5.164062 -9.546875 4.578125 -9.363281 4.109375 -9 C 3.640625 -8.644531 3.285156 -8.160156 3.046875 -7.546875 C 2.816406 -6.941406 2.703125 -6.273438 2.703125 -5.546875 C 2.703125 -4.398438 2.96875 -3.46875 3.5 -2.75 C 4.03125 -2.03125 4.820312 -1.671875 5.875 -1.671875 Z M 5.875 -1.671875 "/></g></g></g></svg>